<!-- Generated by IcoMoon.io -->
<svg version="1.1" xmlns="http://www.w3.org/2000/svg" width="42" height="32" viewBox="0 0 42 32">
<title>menu_24px</title>
<path d="M6.154 4.513v-3.282h29.538v3.282h-29.538zM6.154 12.718h29.538v-3.282h-29.538v3.282zM6.154 20.923h29.538v-3.282h-29.538v3.282z"></path>
<path d="M6.154 1.231v-0.615h-0.615v0.615h0.615zM6.154 4.513h-0.615v0.615h0.615v-0.615zM35.692 1.231h0.615v-0.615h-0.615v0.615zM35.692 4.513v0.615h0.615v-0.615h-0.615zM35.692 12.718v0.615h0.615v-0.615h-0.615zM6.154 12.718h-0.615v0.615h0.615v-0.615zM35.692 9.436h0.615v-0.615h-0.615v0.615zM6.154 9.436v-0.615h-0.615v0.615h0.615zM35.692 20.923v0.615h0.615v-0.615h-0.615zM6.154 20.923h-0.615v0.615h0.615v-0.615zM35.692 17.641h0.615v-0.615h-0.615v0.615zM6.154 17.641v-0.615h-0.615v0.615h0.615zM5.538 1.231v3.282h1.231v-3.282h-1.231zM35.692 0.615h-29.538v1.231h29.538v-1.231zM36.308 4.513v-3.282h-1.231v3.282h1.231zM6.154 5.128h29.538v-1.231h-29.538v1.231zM35.692 12.103h-29.538v1.231h29.538v-1.231zM35.077 9.436v3.282h1.231v-3.282h-1.231zM6.154 10.051h29.538v-1.231h-29.538v1.231zM6.769 12.718v-3.282h-1.231v3.282h1.231zM35.692 20.308h-29.538v1.231h29.538v-1.231zM35.077 17.641v3.282h1.231v-3.282h-1.231zM6.154 18.256h29.538v-1.231h-29.538v1.231zM6.769 20.923v-3.282h-1.231v3.282h1.231z"></path>
</svg>
